<?xml version="1.0" encoding="UTF-8" standalone="no"?><!DOCTYPE svg PUBLIC "-//W3C//DTD SVG 1.1//EN" "http://www.w3.org/Graphics/SVG/1.1/DTD/svg11.dtd"><svg width="100%" height="100%" viewBox="0 0 512 512" version="1.1" xmlns="http://www.w3.org/2000/svg" xmlns:xlink="http://www.w3.org/1999/xlink" xml:space="preserve" xmlns:serif="http://www.serif.com/" style="fill-rule:evenodd;clip-rule:evenodd;stroke-linejoin:round;stroke-miterlimit:2;"><circle id="Foundation" cx="256" cy="256" r="254.787" style="fill:url(#_Linear1);"/><circle id="Sphere" cx="256.093" cy="256" r="233.465" style="fill:url(#_Linear2);"/><path id="Shade" d="M336.703,36.848c89.182,32.853 152.855,118.625 152.855,219.152c0,128.853 -104.612,233.465 -233.465,233.465c-100.527,0 -186.299,-63.673 -219.152,-152.854c38.077,64.735 108.471,108.223 188.943,108.223c120.893,0 219.043,-98.15 219.043,-219.043c-0,-80.471 -43.488,-150.866 -108.224,-188.943Z" style="fill:rgb(22,8,130);fill-opacity:0.09;"/><path id="Shine" d="M84.8,212.491c-8.753,-2.225 -16.076,-8.201 -20.011,-16.329c-3.935,-8.129 -4.079,-17.58 -0.395,-25.825c21.088,-46.99 58.949,-84.851 105.949,-105.917c8.238,-3.682 17.682,-3.538 25.805,0.394c8.122,3.932 14.093,11.25 16.316,19.996c0.101,0.303 0.179,0.611 0.258,0.919c3.508,13.806 -3.494,28.122 -16.545,33.829c-33.925,14.889 -61.244,42.075 -76.324,75.898c-5.976,13.453 -20.779,20.639 -35.046,17.013c-0.006,0.022 -0.007,0.022 -0.007,0.022Z" style="fill:white;fill-opacity:0.17;"/><path id="Flash2" d="M202.192,415.358c-3.449,-2.258 53.252,-121.426 51.208,-126.918l98.616,-15.425c-24.428,35.762 -146.859,144.294 -149.824,142.343Z" style="fill:url(#_Linear3);fill-rule:nonzero;"/><path id="Flash1" d="M355.357,268.549c-29.698,45.612 -137.618,21.492 -198.394,-21.128c-8.298,-5.819 155.557,-154.766 158.917,-151.957c3.359,2.808 -55.618,128.654 -54.018,132.76c1.617,4.088 99.173,31.604 93.495,40.325Z" style="fill:url(#_Linear4);fill-rule:nonzero;"/><defs><linearGradient id="_Linear1" x1="0" y1="0" x2="1" y2="0" gradientUnits="userSpaceOnUse" gradientTransform="matrix(405.593,1.17563e-06,-294.704,1.61799e-06,61.7598,96.0198)"><stop offset="0" style="stop-color:rgb(255,246,255);stop-opacity:1"/><stop offset="1" style="stop-color:white;stop-opacity:1"/></linearGradient><linearGradient id="_Linear2" x1="0" y1="0" x2="1" y2="0" gradientUnits="userSpaceOnUse" gradientTransform="matrix(159.978,434.756,-439.335,161.663,190.148,35.4773)"><stop offset="0" style="stop-color:rgb(236,0,156);stop-opacity:1"/><stop offset="1" style="stop-color:rgb(142,0,242);stop-opacity:1"/></linearGradient><linearGradient id="_Linear3" x1="0" y1="0" x2="1" y2="0" gradientUnits="userSpaceOnUse" gradientTransform="matrix(-14.9096,127.803,-287.591,-33.5506,286.182,291.241)"><stop offset="0" style="stop-color:rgb(233,170,241);stop-opacity:1"/><stop offset="0.04" style="stop-color:rgb(248,188,251);stop-opacity:1"/><stop offset="0.08" style="stop-color:rgb(253,195,255);stop-opacity:1"/><stop offset="1" style="stop-color:white;stop-opacity:1"/></linearGradient><linearGradient id="_Linear4" x1="0" y1="0" x2="1" y2="0" gradientUnits="userSpaceOnUse" gradientTransform="matrix(36.3068,1.38424e-06,-34.8148,1.44356e-06,237.346,165.744)"><stop offset="0" style="stop-color:rgb(253,194,255);stop-opacity:1"/><stop offset="1" style="stop-color:white;stop-opacity:1"/></linearGradient></defs></svg>