<?xml version="1.0" encoding="UTF-8" standalone="no"?>
<!DOCTYPE svg PUBLIC "-//W3C//DTD SVG 1.1//EN" "http://www.w3.org/Graphics/SVG/1.1/DTD/svg11.dtd">
<svg width="100%" height="100%" viewBox="0 0 1536 384" version="1.1" xmlns="http://www.w3.org/2000/svg" xmlns:xlink="http://www.w3.org/1999/xlink" xml:space="preserve" xmlns:serif="http://www.serif.com/" style="fill-rule:evenodd;clip-rule:evenodd;stroke-linejoin:round;stroke-miterlimit:2;">
    <g transform="matrix(0.641921,0,0,0.641921,39.5892,27.6683)">
        <circle cx="256" cy="256" r="256" style="fill:url(#_Linear1);"/>
    </g>
    <g transform="matrix(0.588202,0,0,0.588202,53.4009,41.4202)">
        <circle cx="256" cy="256" r="256" style="fill:url(#_Linear2);"/>
    </g>
    <g transform="matrix(0.627978,0,0,0.627978,43.1719,31.2377)">
        <path d="M338.867,30.915C430.463,64.658 495.86,152.752 495.86,256C495.86,388.341 388.415,495.785 256.074,495.785C152.826,495.785 64.732,430.388 30.989,338.793C70.098,405.281 142.398,449.946 225.047,449.946C349.213,449.946 450.02,349.139 450.02,224.973C450.02,142.323 405.355,70.024 338.867,30.915Z" style="fill:rgb(22,8,130);fill-opacity:0.09;"/>
    </g>
    <g id="flash" transform="matrix(11.4644,0,0,11.4644,91.2236,76.982)">
        <path d="M6.803,18.998C6.609,18.871 9.801,12.328 9.686,12.019L15.251,11.06C13.877,13.072 6.97,19.108 6.803,18.998Z" style="fill:url(#_Linear3);fill-rule:nonzero;"/>
    </g>
    <g id="flash1" serif:id="flash" transform="matrix(11.4644,0,0,11.4644,91.2236,76.982)">
        <path d="M15.42,10.739C14.75,12.431 11.917,12.901 9.734,12.033C9.734,12.033 5.672,10.862 4.258,9.55C3.841,9.162 13.01,0.843 13.199,1.001C13.388,1.159 10.07,8.239 10.16,8.47C10.251,8.7 15.635,10.194 15.42,10.739Z" style="fill:url(#_Linear4);fill-rule:nonzero;"/>
    </g>
    <g transform="matrix(0.682923,0,0,0.682923,29.0901,17.1718)">
        <path d="M99.886,216.324C90.039,213.821 81.85,207.005 77.603,197.775C73.356,188.546 73.506,177.892 78.011,168.786C97.378,129.416 129.416,97.378 168.794,78.029C177.895,73.526 188.543,73.377 197.767,77.621C206.991,81.865 213.804,90.05 216.305,99.89C216.441,100.347 216.558,100.806 216.673,101.26C219.205,111.224 213.909,121.512 204.328,125.241C168.582,139.259 140.024,167.588 125.585,203.135C121.513,213.303 110.54,218.885 99.924,216.186C99.888,216.324 99.887,216.324 99.886,216.324Z" style="fill:white;fill-opacity:0.17;"/>
    </g>
    <g transform="matrix(1,0,0,1,430.527,-36.8601)">
        <g transform="matrix(207,0,0,207,0,245.278)">
            <path d="M0.316,0.014C0.259,0.014 0.203,0.007 0.151,-0.008C0.098,-0.022 0.054,-0.04 0.021,-0.063L0.086,-0.209C0.117,-0.189 0.154,-0.172 0.195,-0.16C0.235,-0.147 0.276,-0.14 0.317,-0.14C0.344,-0.14 0.366,-0.142 0.383,-0.148C0.4,-0.153 0.412,-0.159 0.42,-0.168C0.427,-0.176 0.431,-0.186 0.431,-0.197C0.431,-0.213 0.424,-0.226 0.409,-0.235C0.394,-0.244 0.375,-0.252 0.352,-0.258C0.329,-0.264 0.303,-0.27 0.275,-0.276C0.246,-0.282 0.218,-0.29 0.19,-0.299C0.161,-0.308 0.135,-0.321 0.112,-0.336C0.089,-0.35 0.07,-0.37 0.055,-0.395C0.04,-0.419 0.033,-0.45 0.033,-0.487C0.033,-0.529 0.045,-0.567 0.068,-0.601C0.091,-0.635 0.125,-0.662 0.171,-0.683C0.217,-0.704 0.274,-0.714 0.343,-0.714C0.389,-0.714 0.434,-0.709 0.478,-0.699C0.523,-0.688 0.562,-0.673 0.597,-0.653L0.536,-0.506C0.503,-0.524 0.47,-0.538 0.437,-0.547C0.404,-0.556 0.373,-0.56 0.342,-0.56C0.315,-0.56 0.293,-0.557 0.276,-0.552C0.259,-0.546 0.247,-0.538 0.24,-0.529C0.233,-0.52 0.229,-0.509 0.229,-0.497C0.229,-0.482 0.236,-0.469 0.251,-0.461C0.265,-0.452 0.284,-0.444 0.308,-0.439C0.331,-0.433 0.357,-0.427 0.386,-0.421C0.414,-0.415 0.442,-0.407 0.47,-0.399C0.499,-0.39 0.525,-0.378 0.548,-0.363C0.571,-0.347 0.59,-0.328 0.605,-0.304C0.619,-0.279 0.626,-0.249 0.626,-0.212C0.626,-0.171 0.615,-0.134 0.592,-0.1C0.569,-0.065 0.534,-0.038 0.489,-0.017C0.443,0.004 0.385,0.014 0.316,0.014Z" style="fill:rgb(94,110,157);fill-rule:nonzero;"/>
        </g>
        <g transform="matrix(207,0,0,207,133.929,245.278)">
            <path d="M0.289,0.009C0.245,0.009 0.205,0 0.171,-0.017C0.136,-0.034 0.108,-0.062 0.089,-0.099C0.069,-0.136 0.059,-0.182 0.059,-0.239L0.059,-0.542L0.249,-0.542L0.249,-0.27C0.249,-0.228 0.257,-0.198 0.273,-0.18C0.288,-0.162 0.31,-0.153 0.339,-0.153C0.358,-0.153 0.375,-0.157 0.39,-0.166C0.405,-0.175 0.418,-0.189 0.427,-0.207C0.436,-0.227 0.441,-0.251 0.441,-0.281L0.441,-0.542L0.631,-0.542L0.631,-0L0.45,-0L0.45,-0.153L0.485,-0.11C0.466,-0.07 0.439,-0.04 0.404,-0.021C0.369,-0.001 0.33,0.009 0.289,0.009Z" style="fill:rgb(94,110,157);fill-rule:nonzero;"/>
        </g>
        <g transform="matrix(207,0,0,207,277.173,245.278)">
            <path d="M0.061,-0L0.061,-0.542L0.242,-0.542L0.242,-0.384L0.215,-0.429C0.231,-0.47 0.257,-0.5 0.293,-0.521C0.329,-0.541 0.373,-0.551 0.424,-0.551L0.424,-0.38C0.415,-0.381 0.408,-0.382 0.402,-0.383C0.395,-0.383 0.388,-0.383 0.381,-0.383C0.342,-0.383 0.311,-0.373 0.287,-0.352C0.263,-0.331 0.251,-0.296 0.251,-0.249L0.251,-0L0.061,-0Z" style="fill:rgb(94,110,157);fill-rule:nonzero;"/>
        </g>
        <g transform="matrix(207,0,0,207,368.46,245.278)">
            <path d="M0.061,-0L0.061,-0.542L0.242,-0.542L0.242,-0.384L0.215,-0.429C0.231,-0.47 0.257,-0.5 0.293,-0.521C0.329,-0.541 0.373,-0.551 0.424,-0.551L0.424,-0.38C0.415,-0.381 0.408,-0.382 0.402,-0.383C0.395,-0.383 0.388,-0.383 0.381,-0.383C0.342,-0.383 0.311,-0.373 0.287,-0.352C0.263,-0.331 0.251,-0.296 0.251,-0.249L0.251,-0L0.061,-0Z" style="fill:rgb(94,110,157);fill-rule:nonzero;"/>
        </g>
        <g transform="matrix(207,0,0,207,458.712,245.278)">
            <path d="M0.345,0.009C0.281,0.009 0.225,-0.003 0.178,-0.028C0.13,-0.052 0.093,-0.085 0.067,-0.128C0.04,-0.17 0.027,-0.218 0.027,-0.272C0.027,-0.326 0.04,-0.374 0.066,-0.417C0.091,-0.459 0.127,-0.492 0.172,-0.516C0.217,-0.539 0.268,-0.551 0.325,-0.551C0.378,-0.551 0.427,-0.54 0.471,-0.519C0.515,-0.497 0.55,-0.465 0.576,-0.423C0.602,-0.381 0.615,-0.33 0.615,-0.27C0.615,-0.263 0.615,-0.256 0.614,-0.247C0.613,-0.238 0.613,-0.23 0.612,-0.223L0.183,-0.223L0.183,-0.323L0.511,-0.323L0.439,-0.295C0.44,-0.32 0.435,-0.341 0.426,-0.359C0.416,-0.377 0.403,-0.391 0.386,-0.401C0.369,-0.411 0.349,-0.416 0.326,-0.416C0.303,-0.416 0.283,-0.411 0.267,-0.401C0.25,-0.391 0.236,-0.377 0.227,-0.359C0.218,-0.34 0.213,-0.319 0.213,-0.294L0.213,-0.265C0.213,-0.238 0.219,-0.215 0.23,-0.196C0.241,-0.177 0.256,-0.162 0.277,-0.152C0.298,-0.141 0.322,-0.136 0.351,-0.136C0.378,-0.136 0.401,-0.14 0.42,-0.148C0.439,-0.155 0.457,-0.167 0.476,-0.183L0.576,-0.079C0.55,-0.05 0.518,-0.029 0.48,-0.014C0.442,0.001 0.397,0.009 0.345,0.009Z" style="fill:rgb(94,110,157);fill-rule:nonzero;"/>
        </g>
        <g transform="matrix(207,0,0,207,588.501,245.278)">
            <path d="M0.392,-0L0.392,-0.101L0.379,-0.126L0.379,-0.312C0.379,-0.342 0.37,-0.365 0.352,-0.382C0.333,-0.398 0.304,-0.406 0.264,-0.406C0.238,-0.406 0.212,-0.402 0.185,-0.394C0.158,-0.385 0.136,-0.374 0.117,-0.359L0.053,-0.488C0.084,-0.508 0.121,-0.524 0.164,-0.535C0.206,-0.546 0.249,-0.551 0.292,-0.551C0.38,-0.551 0.448,-0.531 0.497,-0.491C0.545,-0.45 0.569,-0.387 0.569,-0.301L0.569,-0L0.392,-0ZM0.232,0.009C0.189,0.009 0.152,0.002 0.122,-0.013C0.092,-0.028 0.069,-0.048 0.054,-0.073C0.038,-0.098 0.03,-0.127 0.03,-0.158C0.03,-0.191 0.039,-0.22 0.056,-0.245C0.073,-0.269 0.099,-0.288 0.134,-0.301C0.169,-0.314 0.215,-0.32 0.271,-0.32L0.399,-0.32L0.399,-0.221L0.297,-0.221C0.266,-0.221 0.245,-0.216 0.233,-0.206C0.22,-0.196 0.214,-0.183 0.214,-0.166C0.214,-0.149 0.22,-0.136 0.233,-0.126C0.246,-0.116 0.263,-0.111 0.285,-0.111C0.306,-0.111 0.325,-0.116 0.342,-0.127C0.359,-0.137 0.371,-0.153 0.379,-0.174L0.405,-0.104C0.395,-0.067 0.376,-0.039 0.346,-0.02C0.318,-0.001 0.279,0.009 0.232,0.009Z" style="fill:rgb(94,110,157);fill-rule:nonzero;"/>
        </g>
        <g transform="matrix(207,0,0,207,718.497,245.278)">
            <rect x="0.061" y="-0.742" width="0.19" height="0.742" style="fill:rgb(94,110,157);fill-rule:nonzero;"/>
        </g>
        <g transform="matrix(207,0,0,207,783.288,245.278)">
            <path d="M0.061,-0L0.061,-0.542L0.251,-0.542L0.251,-0L0.061,-0ZM0.156,-0.602C0.121,-0.602 0.093,-0.612 0.072,-0.631C0.051,-0.65 0.04,-0.674 0.04,-0.703C0.04,-0.732 0.051,-0.756 0.072,-0.775C0.093,-0.794 0.121,-0.804 0.156,-0.804C0.191,-0.804 0.219,-0.795 0.24,-0.777C0.261,-0.758 0.272,-0.735 0.272,-0.706C0.272,-0.676 0.262,-0.651 0.241,-0.631C0.22,-0.612 0.191,-0.602 0.156,-0.602Z" style="fill:rgb(94,110,157);fill-rule:nonzero;"/>
        </g>
        <g transform="matrix(207,0,0,207,848.079,245.278)">
            <path d="M0.258,0.009C0.212,0.009 0.167,0.004 0.124,-0.007C0.08,-0.018 0.045,-0.031 0.018,-0.047L0.075,-0.177C0.1,-0.162 0.13,-0.15 0.164,-0.141C0.198,-0.132 0.231,-0.127 0.264,-0.127C0.296,-0.127 0.318,-0.13 0.331,-0.137C0.343,-0.144 0.349,-0.153 0.349,-0.164C0.349,-0.175 0.343,-0.183 0.332,-0.188C0.32,-0.193 0.305,-0.196 0.285,-0.199C0.267,-0.202 0.246,-0.205 0.223,-0.208C0.2,-0.211 0.178,-0.216 0.155,-0.222C0.132,-0.227 0.111,-0.236 0.092,-0.248C0.073,-0.259 0.057,-0.275 0.046,-0.295C0.035,-0.315 0.029,-0.34 0.029,-0.371C0.029,-0.406 0.039,-0.437 0.059,-0.464C0.08,-0.491 0.11,-0.512 0.149,-0.528C0.188,-0.543 0.236,-0.551 0.293,-0.551C0.331,-0.551 0.37,-0.547 0.408,-0.54C0.448,-0.532 0.48,-0.52 0.507,-0.505L0.45,-0.376C0.423,-0.391 0.397,-0.402 0.37,-0.407C0.343,-0.413 0.318,-0.416 0.294,-0.416C0.262,-0.416 0.239,-0.412 0.227,-0.405C0.214,-0.398 0.207,-0.389 0.207,-0.378C0.207,-0.367 0.213,-0.359 0.224,-0.354C0.235,-0.348 0.251,-0.344 0.27,-0.341C0.289,-0.338 0.309,-0.335 0.332,-0.332C0.355,-0.329 0.378,-0.324 0.401,-0.318C0.424,-0.312 0.445,-0.303 0.464,-0.292C0.483,-0.28 0.498,-0.264 0.509,-0.245C0.52,-0.225 0.526,-0.2 0.526,-0.169C0.526,-0.136 0.516,-0.106 0.496,-0.079C0.475,-0.052 0.445,-0.031 0.406,-0.015C0.366,0.001 0.317,0.009 0.258,0.009Z" style="fill:rgb(94,110,157);fill-rule:nonzero;"/>
        </g>
        <g transform="matrix(207,0,0,207,961.308,245.278)">
            <path d="M0.303,0.009C0.234,0.009 0.18,-0.008 0.141,-0.043C0.102,-0.077 0.083,-0.129 0.083,-0.198L0.083,-0.663L0.273,-0.663L0.273,-0.2C0.273,-0.181 0.278,-0.166 0.289,-0.155C0.3,-0.143 0.313,-0.138 0.33,-0.138C0.353,-0.138 0.372,-0.144 0.388,-0.155L0.435,-0.022C0.419,-0.011 0.399,-0.004 0.376,0.001C0.353,0.006 0.328,0.009 0.303,0.009ZM0.004,-0.38L0.004,-0.522L0.397,-0.522L0.397,-0.38L0.004,-0.38Z" style="fill:rgb(94,110,157);fill-rule:nonzero;"/>
        </g>
    </g>
    <g transform="matrix(1,0,0,1,430.527,-54.3165)">
        <g transform="matrix(88,0,0,88,27.1056,369.454)">
            <path d="M0.045,-0.23L0.134,-0.238C0.139,-0.202 0.148,-0.173 0.164,-0.15C0.179,-0.127 0.203,-0.108 0.236,-0.094C0.268,-0.08 0.305,-0.073 0.346,-0.073C0.382,-0.073 0.414,-0.078 0.441,-0.089C0.469,-0.1 0.49,-0.114 0.503,-0.133C0.517,-0.152 0.523,-0.172 0.523,-0.194C0.523,-0.217 0.517,-0.236 0.504,-0.253C0.491,-0.27 0.469,-0.284 0.439,-0.295C0.42,-0.303 0.378,-0.315 0.312,-0.33C0.246,-0.346 0.2,-0.361 0.174,-0.375C0.14,-0.393 0.114,-0.415 0.097,-0.442C0.081,-0.468 0.072,-0.498 0.072,-0.531C0.072,-0.567 0.083,-0.601 0.103,-0.632C0.124,-0.663 0.153,-0.687 0.193,-0.704C0.232,-0.72 0.276,-0.728 0.324,-0.728C0.377,-0.728 0.424,-0.719 0.465,-0.702C0.505,-0.685 0.536,-0.66 0.558,-0.627C0.58,-0.594 0.592,-0.556 0.593,-0.514L0.502,-0.507C0.498,-0.553 0.481,-0.587 0.453,-0.61C0.425,-0.633 0.383,-0.645 0.328,-0.645C0.271,-0.645 0.229,-0.634 0.203,-0.613C0.177,-0.592 0.164,-0.567 0.164,-0.537C0.164,-0.511 0.173,-0.49 0.191,-0.474C0.21,-0.457 0.257,-0.44 0.334,-0.423C0.411,-0.405 0.464,-0.39 0.493,-0.377C0.534,-0.358 0.565,-0.333 0.585,-0.304C0.605,-0.274 0.615,-0.241 0.615,-0.202C0.615,-0.164 0.604,-0.128 0.582,-0.094C0.56,-0.061 0.529,-0.035 0.488,-0.016C0.447,0.003 0.401,0.012 0.35,0.012C0.285,0.012 0.231,0.003 0.187,-0.016C0.143,-0.035 0.109,-0.063 0.084,-0.101C0.059,-0.139 0.046,-0.182 0.045,-0.23Z" style="fill:rgb(149,166,210);fill-rule:nonzero;"/>
        </g>
        <g transform="matrix(88,0,0,88,85.8009,369.454)">
            <path d="M0.406,-0L0.406,-0.076C0.365,-0.018 0.311,0.012 0.241,0.012C0.211,0.012 0.182,0.006 0.156,-0.006C0.129,-0.018 0.109,-0.032 0.096,-0.05C0.084,-0.068 0.075,-0.09 0.069,-0.115C0.066,-0.132 0.064,-0.16 0.064,-0.197L0.064,-0.519L0.152,-0.519L0.152,-0.231C0.152,-0.185 0.154,-0.154 0.157,-0.138C0.163,-0.115 0.174,-0.097 0.192,-0.084C0.21,-0.071 0.232,-0.064 0.259,-0.064C0.285,-0.064 0.31,-0.071 0.333,-0.084C0.356,-0.098 0.372,-0.116 0.382,-0.139C0.392,-0.163 0.396,-0.196 0.396,-0.241L0.396,-0.519L0.484,-0.519L0.484,-0L0.406,-0Z" style="fill:rgb(149,166,210);fill-rule:nonzero;"/>
        </g>
        <g transform="matrix(88,0,0,88,134.742,369.454)">
            <path d="M0.065,-0L0.065,-0.519L0.144,-0.519L0.144,-0.44C0.164,-0.477 0.183,-0.501 0.2,-0.513C0.217,-0.524 0.236,-0.53 0.256,-0.53C0.286,-0.53 0.316,-0.521 0.347,-0.502L0.316,-0.42C0.295,-0.433 0.273,-0.439 0.252,-0.439C0.233,-0.439 0.215,-0.434 0.2,-0.422C0.185,-0.411 0.174,-0.395 0.167,-0.374C0.158,-0.343 0.153,-0.309 0.153,-0.271L0.153,-0L0.065,-0Z" style="fill:rgb(149,166,210);fill-rule:nonzero;"/>
        </g>
        <g transform="matrix(88,0,0,88,164.047,369.454)">
            <path d="M0.065,-0L0.065,-0.519L0.144,-0.519L0.144,-0.44C0.164,-0.477 0.183,-0.501 0.2,-0.513C0.217,-0.524 0.236,-0.53 0.256,-0.53C0.286,-0.53 0.316,-0.521 0.347,-0.502L0.316,-0.42C0.295,-0.433 0.273,-0.439 0.252,-0.439C0.233,-0.439 0.215,-0.434 0.2,-0.422C0.185,-0.411 0.174,-0.395 0.167,-0.374C0.158,-0.343 0.153,-0.309 0.153,-0.271L0.153,-0L0.065,-0Z" style="fill:rgb(149,166,210);fill-rule:nonzero;"/>
        </g>
        <g transform="matrix(88,0,0,88,193.352,369.454)">
            <path d="M0.421,-0.167L0.512,-0.156C0.497,-0.103 0.471,-0.062 0.432,-0.032C0.393,-0.003 0.344,0.012 0.284,0.012C0.208,0.012 0.148,-0.012 0.103,-0.058C0.059,-0.105 0.037,-0.171 0.037,-0.255C0.037,-0.342 0.059,-0.41 0.104,-0.458C0.149,-0.506 0.207,-0.53 0.279,-0.53C0.348,-0.53 0.405,-0.507 0.449,-0.459C0.493,-0.412 0.515,-0.346 0.515,-0.26C0.515,-0.255 0.514,-0.247 0.514,-0.237L0.127,-0.237C0.131,-0.18 0.147,-0.136 0.176,-0.106C0.205,-0.076 0.241,-0.061 0.284,-0.061C0.316,-0.061 0.344,-0.069 0.367,-0.086C0.389,-0.103 0.408,-0.13 0.421,-0.167ZM0.132,-0.309L0.422,-0.309C0.418,-0.353 0.407,-0.385 0.389,-0.407C0.361,-0.441 0.324,-0.458 0.28,-0.458C0.239,-0.458 0.205,-0.444 0.178,-0.417C0.15,-0.39 0.135,-0.354 0.132,-0.309Z" style="fill:rgb(149,166,210);fill-rule:nonzero;"/>
        </g>
        <g transform="matrix(88,0,0,88,242.293,369.454)">
            <path d="M0.404,-0.064C0.372,-0.036 0.34,-0.017 0.31,-0.005C0.28,0.006 0.248,0.012 0.213,0.012C0.156,0.012 0.113,-0.002 0.082,-0.03C0.051,-0.058 0.036,-0.093 0.036,-0.137C0.036,-0.162 0.042,-0.185 0.053,-0.206C0.065,-0.227 0.08,-0.244 0.099,-0.257C0.118,-0.27 0.139,-0.279 0.162,-0.286C0.179,-0.29 0.205,-0.295 0.24,-0.299C0.311,-0.307 0.363,-0.317 0.397,-0.329C0.397,-0.341 0.397,-0.349 0.397,-0.352C0.397,-0.388 0.389,-0.413 0.373,-0.428C0.35,-0.448 0.317,-0.458 0.272,-0.458C0.231,-0.458 0.201,-0.45 0.181,-0.436C0.161,-0.421 0.147,-0.396 0.137,-0.359L0.051,-0.371C0.059,-0.407 0.072,-0.437 0.09,-0.46C0.108,-0.482 0.134,-0.5 0.167,-0.512C0.201,-0.524 0.241,-0.53 0.285,-0.53C0.329,-0.53 0.365,-0.525 0.393,-0.515C0.421,-0.504 0.441,-0.491 0.454,-0.475C0.467,-0.46 0.476,-0.44 0.481,-0.416C0.484,-0.401 0.486,-0.374 0.486,-0.334L0.486,-0.217C0.486,-0.136 0.488,-0.084 0.491,-0.062C0.495,-0.041 0.503,-0.02 0.514,-0L0.422,-0C0.413,-0.018 0.407,-0.04 0.404,-0.064ZM0.397,-0.26C0.365,-0.247 0.317,-0.236 0.253,-0.227C0.217,-0.222 0.192,-0.216 0.177,-0.209C0.162,-0.203 0.15,-0.193 0.142,-0.181C0.134,-0.168 0.13,-0.154 0.13,-0.139C0.13,-0.116 0.139,-0.096 0.156,-0.081C0.174,-0.065 0.2,-0.057 0.234,-0.057C0.268,-0.057 0.298,-0.065 0.325,-0.079C0.351,-0.094 0.37,-0.114 0.383,-0.14C0.392,-0.16 0.397,-0.189 0.397,-0.228L0.397,-0.26Z" style="fill:rgb(149,166,210);fill-rule:nonzero;"/>
        </g>
        <g transform="matrix(88,0,0,88,291.235,369.454)">
            <rect x="0.064" y="-0.716" width="0.088" height="0.716" style="fill:rgb(149,166,210);fill-rule:nonzero;"/>
        </g>
        <g transform="matrix(88,0,0,88,310.785,369.454)">
            <path d="M0.077,-0L0.077,-0.716L0.324,-0.716C0.379,-0.716 0.422,-0.712 0.451,-0.706C0.492,-0.696 0.527,-0.679 0.556,-0.654C0.594,-0.622 0.622,-0.582 0.641,-0.532C0.66,-0.482 0.669,-0.426 0.669,-0.362C0.669,-0.307 0.663,-0.259 0.65,-0.217C0.637,-0.175 0.621,-0.141 0.601,-0.113C0.581,-0.086 0.559,-0.064 0.536,-0.048C0.512,-0.032 0.484,-0.02 0.45,-0.012C0.417,-0.004 0.379,-0 0.335,-0L0.077,-0ZM0.172,-0.084L0.325,-0.084C0.372,-0.084 0.409,-0.089 0.436,-0.098C0.463,-0.106 0.484,-0.119 0.5,-0.135C0.522,-0.157 0.54,-0.187 0.552,-0.225C0.565,-0.263 0.571,-0.309 0.571,-0.363C0.571,-0.438 0.559,-0.496 0.534,-0.536C0.51,-0.576 0.48,-0.603 0.445,-0.617C0.419,-0.626 0.379,-0.631 0.322,-0.631L0.172,-0.631L0.172,-0.084Z" style="fill:rgb(149,166,210);fill-rule:nonzero;"/>
        </g>
        <g transform="matrix(88,0,0,88,374.336,369.454)">
            <path d="M0.073,-0L0.073,-0.716L0.342,-0.716C0.396,-0.716 0.44,-0.709 0.473,-0.694C0.506,-0.68 0.532,-0.657 0.551,-0.627C0.57,-0.597 0.579,-0.566 0.579,-0.533C0.579,-0.502 0.571,-0.473 0.554,-0.446C0.538,-0.419 0.513,-0.397 0.479,-0.381C0.522,-0.368 0.556,-0.347 0.579,-0.316C0.602,-0.285 0.614,-0.249 0.614,-0.208C0.614,-0.174 0.607,-0.143 0.593,-0.114C0.578,-0.085 0.561,-0.063 0.54,-0.047C0.519,-0.032 0.493,-0.02 0.462,-0.012C0.43,-0.004 0.392,-0 0.346,-0L0.073,-0ZM0.168,-0.415L0.323,-0.415C0.365,-0.415 0.395,-0.418 0.413,-0.423C0.437,-0.431 0.455,-0.442 0.468,-0.459C0.48,-0.476 0.486,-0.496 0.486,-0.521C0.486,-0.545 0.48,-0.566 0.469,-0.584C0.457,-0.602 0.441,-0.615 0.42,-0.621C0.399,-0.628 0.362,-0.631 0.311,-0.631L0.168,-0.631L0.168,-0.415ZM0.168,-0.084L0.346,-0.084C0.377,-0.084 0.398,-0.086 0.411,-0.088C0.432,-0.092 0.451,-0.098 0.465,-0.107C0.48,-0.117 0.492,-0.13 0.501,-0.147C0.511,-0.165 0.516,-0.185 0.516,-0.208C0.516,-0.234 0.509,-0.257 0.495,-0.277C0.481,-0.297 0.462,-0.311 0.438,-0.319C0.414,-0.327 0.379,-0.331 0.333,-0.331L0.168,-0.331L0.168,-0.084Z" style="fill:rgb(149,166,210);fill-rule:nonzero;"/>
        </g>
        <g transform="matrix(88,0,0,88,457.481,369.454)">
            <path d="M0.396,0.199L0.396,-0.055C0.383,-0.036 0.364,-0.02 0.339,-0.007C0.315,0.005 0.288,0.012 0.261,0.012C0.199,0.012 0.146,-0.013 0.102,-0.062C0.057,-0.111 0.035,-0.179 0.035,-0.264C0.035,-0.316 0.044,-0.363 0.062,-0.404C0.08,-0.446 0.107,-0.477 0.141,-0.498C0.175,-0.52 0.213,-0.53 0.254,-0.53C0.318,-0.53 0.368,-0.503 0.405,-0.449L0.405,-0.519L0.484,-0.519L0.484,0.199L0.396,0.199ZM0.125,-0.261C0.125,-0.194 0.139,-0.144 0.167,-0.111C0.195,-0.077 0.229,-0.061 0.268,-0.061C0.306,-0.061 0.338,-0.076 0.365,-0.108C0.392,-0.14 0.405,-0.188 0.405,-0.253C0.405,-0.322 0.391,-0.374 0.363,-0.409C0.334,-0.444 0.301,-0.461 0.262,-0.461C0.224,-0.461 0.192,-0.445 0.165,-0.412C0.139,-0.38 0.125,-0.329 0.125,-0.261Z" style="fill:rgb(149,166,210);fill-rule:nonzero;"/>
        </g>
        <g transform="matrix(88,0,0,88,506.422,369.454)">
            <path d="M0.406,-0L0.406,-0.076C0.365,-0.018 0.311,0.012 0.241,0.012C0.211,0.012 0.182,0.006 0.156,-0.006C0.129,-0.018 0.109,-0.032 0.096,-0.05C0.084,-0.068 0.075,-0.09 0.069,-0.115C0.066,-0.132 0.064,-0.16 0.064,-0.197L0.064,-0.519L0.152,-0.519L0.152,-0.231C0.152,-0.185 0.154,-0.154 0.157,-0.138C0.163,-0.115 0.174,-0.097 0.192,-0.084C0.21,-0.071 0.232,-0.064 0.259,-0.064C0.285,-0.064 0.31,-0.071 0.333,-0.084C0.356,-0.098 0.372,-0.116 0.382,-0.139C0.392,-0.163 0.396,-0.196 0.396,-0.241L0.396,-0.519L0.484,-0.519L0.484,-0L0.406,-0Z" style="fill:rgb(149,166,210);fill-rule:nonzero;"/>
        </g>
        <g transform="matrix(88,0,0,88,555.363,369.454)">
            <path d="M0.421,-0.167L0.512,-0.156C0.497,-0.103 0.471,-0.062 0.432,-0.032C0.393,-0.003 0.344,0.012 0.284,0.012C0.208,0.012 0.148,-0.012 0.103,-0.058C0.059,-0.105 0.037,-0.171 0.037,-0.255C0.037,-0.342 0.059,-0.41 0.104,-0.458C0.149,-0.506 0.207,-0.53 0.279,-0.53C0.348,-0.53 0.405,-0.507 0.449,-0.459C0.493,-0.412 0.515,-0.346 0.515,-0.26C0.515,-0.255 0.514,-0.247 0.514,-0.237L0.127,-0.237C0.131,-0.18 0.147,-0.136 0.176,-0.106C0.205,-0.076 0.241,-0.061 0.284,-0.061C0.316,-0.061 0.344,-0.069 0.367,-0.086C0.389,-0.103 0.408,-0.13 0.421,-0.167ZM0.132,-0.309L0.422,-0.309C0.418,-0.353 0.407,-0.385 0.389,-0.407C0.361,-0.441 0.324,-0.458 0.28,-0.458C0.239,-0.458 0.205,-0.444 0.178,-0.417C0.15,-0.39 0.135,-0.354 0.132,-0.309Z" style="fill:rgb(149,166,210);fill-rule:nonzero;"/>
        </g>
        <g transform="matrix(88,0,0,88,604.305,369.454)">
            <path d="M0.065,-0L0.065,-0.519L0.144,-0.519L0.144,-0.44C0.164,-0.477 0.183,-0.501 0.2,-0.513C0.217,-0.524 0.236,-0.53 0.256,-0.53C0.286,-0.53 0.316,-0.521 0.347,-0.502L0.316,-0.42C0.295,-0.433 0.273,-0.439 0.252,-0.439C0.233,-0.439 0.215,-0.434 0.2,-0.422C0.185,-0.411 0.174,-0.395 0.167,-0.374C0.158,-0.343 0.153,-0.309 0.153,-0.271L0.153,-0L0.065,-0Z" style="fill:rgb(149,166,210);fill-rule:nonzero;"/>
        </g>
        <g transform="matrix(88,0,0,88,633.61,369.454)">
            <path d="M0.062,0.2L0.052,0.117C0.071,0.122 0.088,0.125 0.103,0.125C0.122,0.125 0.138,0.122 0.149,0.115C0.161,0.109 0.171,0.1 0.178,0.088C0.184,0.079 0.193,0.057 0.205,0.022C0.207,0.018 0.209,0.01 0.213,0.001L0.016,-0.519L0.111,-0.519L0.219,-0.218C0.233,-0.18 0.245,-0.14 0.256,-0.098C0.266,-0.139 0.278,-0.178 0.292,-0.216L0.403,-0.519L0.491,-0.519L0.294,0.009C0.273,0.066 0.256,0.105 0.245,0.126C0.229,0.155 0.211,0.177 0.191,0.19C0.171,0.204 0.147,0.21 0.119,0.21C0.102,0.21 0.083,0.207 0.062,0.2Z" style="fill:rgb(149,166,210);fill-rule:nonzero;"/>
        </g>
        <g transform="matrix(88,0,0,88,702.059,369.454)">
            <path d="M0.421,-0.167L0.512,-0.156C0.497,-0.103 0.471,-0.062 0.432,-0.032C0.393,-0.003 0.344,0.012 0.284,0.012C0.208,0.012 0.148,-0.012 0.103,-0.058C0.059,-0.105 0.037,-0.171 0.037,-0.255C0.037,-0.342 0.059,-0.41 0.104,-0.458C0.149,-0.506 0.207,-0.53 0.279,-0.53C0.348,-0.53 0.405,-0.507 0.449,-0.459C0.493,-0.412 0.515,-0.346 0.515,-0.26C0.515,-0.255 0.514,-0.247 0.514,-0.237L0.127,-0.237C0.131,-0.18 0.147,-0.136 0.176,-0.106C0.205,-0.076 0.241,-0.061 0.284,-0.061C0.316,-0.061 0.344,-0.069 0.367,-0.086C0.389,-0.103 0.408,-0.13 0.421,-0.167ZM0.132,-0.309L0.422,-0.309C0.418,-0.353 0.407,-0.385 0.389,-0.407C0.361,-0.441 0.324,-0.458 0.28,-0.458C0.239,-0.458 0.205,-0.444 0.178,-0.417C0.15,-0.39 0.135,-0.354 0.132,-0.309Z" style="fill:rgb(149,166,210);fill-rule:nonzero;"/>
        </g>
        <g transform="matrix(88,0,0,88,751,369.454)">
            <path d="M0.007,-0L0.197,-0.27L0.021,-0.519L0.131,-0.519L0.211,-0.397C0.226,-0.374 0.238,-0.354 0.247,-0.339C0.261,-0.36 0.275,-0.379 0.287,-0.396L0.374,-0.519L0.479,-0.519L0.3,-0.274L0.493,-0L0.385,-0L0.278,-0.161L0.25,-0.205L0.114,-0L0.007,-0Z" style="fill:rgb(149,166,210);fill-rule:nonzero;"/>
        </g>
        <g transform="matrix(88,0,0,88,795,369.454)">
            <path d="M0.066,0.199L0.066,-0.519L0.146,-0.519L0.146,-0.451C0.165,-0.478 0.186,-0.497 0.21,-0.51C0.234,-0.524 0.263,-0.53 0.296,-0.53C0.341,-0.53 0.38,-0.519 0.414,-0.496C0.447,-0.473 0.473,-0.441 0.49,-0.4C0.507,-0.358 0.516,-0.313 0.516,-0.263C0.516,-0.21 0.507,-0.162 0.488,-0.12C0.469,-0.077 0.441,-0.045 0.405,-0.022C0.368,0 0.33,0.012 0.29,0.012C0.261,0.012 0.234,0.006 0.211,-0.007C0.188,-0.019 0.169,-0.035 0.154,-0.054L0.154,0.199L0.066,0.199ZM0.146,-0.256C0.146,-0.19 0.159,-0.14 0.186,-0.108C0.213,-0.076 0.246,-0.061 0.284,-0.061C0.323,-0.061 0.357,-0.077 0.385,-0.11C0.412,-0.143 0.426,-0.194 0.426,-0.264C0.426,-0.33 0.413,-0.379 0.385,-0.412C0.358,-0.445 0.326,-0.461 0.288,-0.461C0.251,-0.461 0.218,-0.444 0.189,-0.409C0.16,-0.374 0.146,-0.323 0.146,-0.256Z" style="fill:rgb(149,166,210);fill-rule:nonzero;"/>
        </g>
        <g transform="matrix(88,0,0,88,843.942,369.454)">
            <rect x="0.064" y="-0.716" width="0.088" height="0.716" style="fill:rgb(149,166,210);fill-rule:nonzero;"/>
        </g>
        <g transform="matrix(88,0,0,88,863.492,369.454)">
            <path d="M0.033,-0.259C0.033,-0.355 0.06,-0.426 0.113,-0.473C0.158,-0.511 0.212,-0.53 0.276,-0.53C0.348,-0.53 0.406,-0.507 0.451,-0.46C0.496,-0.413 0.519,-0.349 0.519,-0.267C0.519,-0.2 0.509,-0.147 0.489,-0.109C0.469,-0.071 0.44,-0.041 0.402,-0.02C0.363,0.001 0.322,0.012 0.276,0.012C0.204,0.012 0.145,-0.012 0.1,-0.058C0.056,-0.105 0.033,-0.172 0.033,-0.259ZM0.124,-0.259C0.124,-0.193 0.138,-0.143 0.167,-0.11C0.196,-0.077 0.232,-0.061 0.276,-0.061C0.32,-0.061 0.356,-0.077 0.385,-0.11C0.414,-0.144 0.429,-0.194 0.429,-0.262C0.429,-0.326 0.414,-0.375 0.385,-0.408C0.356,-0.441 0.32,-0.458 0.276,-0.458C0.232,-0.458 0.196,-0.441 0.167,-0.408C0.138,-0.375 0.124,-0.326 0.124,-0.259Z" style="fill:rgb(149,166,210);fill-rule:nonzero;"/>
        </g>
        <g transform="matrix(88,0,0,88,912.434,369.454)">
            <path d="M0.065,-0L0.065,-0.519L0.144,-0.519L0.144,-0.44C0.164,-0.477 0.183,-0.501 0.2,-0.513C0.217,-0.524 0.236,-0.53 0.256,-0.53C0.286,-0.53 0.316,-0.521 0.347,-0.502L0.316,-0.42C0.295,-0.433 0.273,-0.439 0.252,-0.439C0.233,-0.439 0.215,-0.434 0.2,-0.422C0.185,-0.411 0.174,-0.395 0.167,-0.374C0.158,-0.343 0.153,-0.309 0.153,-0.271L0.153,-0L0.065,-0Z" style="fill:rgb(149,166,210);fill-rule:nonzero;"/>
        </g>
        <g transform="matrix(88,0,0,88,941.738,369.454)">
            <path d="M0.421,-0.167L0.512,-0.156C0.497,-0.103 0.471,-0.062 0.432,-0.032C0.393,-0.003 0.344,0.012 0.284,0.012C0.208,0.012 0.148,-0.012 0.103,-0.058C0.059,-0.105 0.037,-0.171 0.037,-0.255C0.037,-0.342 0.059,-0.41 0.104,-0.458C0.149,-0.506 0.207,-0.53 0.279,-0.53C0.348,-0.53 0.405,-0.507 0.449,-0.459C0.493,-0.412 0.515,-0.346 0.515,-0.26C0.515,-0.255 0.514,-0.247 0.514,-0.237L0.127,-0.237C0.131,-0.18 0.147,-0.136 0.176,-0.106C0.205,-0.076 0.241,-0.061 0.284,-0.061C0.316,-0.061 0.344,-0.069 0.367,-0.086C0.389,-0.103 0.408,-0.13 0.421,-0.167ZM0.132,-0.309L0.422,-0.309C0.418,-0.353 0.407,-0.385 0.389,-0.407C0.361,-0.441 0.324,-0.458 0.28,-0.458C0.239,-0.458 0.205,-0.444 0.178,-0.417C0.15,-0.39 0.135,-0.354 0.132,-0.309Z" style="fill:rgb(149,166,210);fill-rule:nonzero;"/>
        </g>
        <g transform="matrix(88,0,0,88,990.68,369.454)">
            <path d="M0.065,-0L0.065,-0.519L0.144,-0.519L0.144,-0.44C0.164,-0.477 0.183,-0.501 0.2,-0.513C0.217,-0.524 0.236,-0.53 0.256,-0.53C0.286,-0.53 0.316,-0.521 0.347,-0.502L0.316,-0.42C0.295,-0.433 0.273,-0.439 0.252,-0.439C0.233,-0.439 0.215,-0.434 0.2,-0.422C0.185,-0.411 0.174,-0.395 0.167,-0.374C0.158,-0.343 0.153,-0.309 0.153,-0.271L0.153,-0L0.065,-0Z" style="fill:rgb(149,166,210);fill-rule:nonzero;"/>
        </g>
    </g>
    <defs>
        <linearGradient id="_Linear1" x1="0" y1="0" x2="1" y2="0" gradientUnits="userSpaceOnUse" gradientTransform="matrix(407.525,1.17563e-06,-296.108,1.61799e-06,60.8348,95.2579)"><stop offset="0" style="stop-color:rgb(255,246,255);stop-opacity:1"/><stop offset="1" style="stop-color:white;stop-opacity:1"/></linearGradient>
        <linearGradient id="_Linear2" x1="0" y1="0" x2="1" y2="0" gradientUnits="userSpaceOnUse" gradientTransform="matrix(175.419,476.72,-481.741,177.267,183.69,14.1919)"><stop offset="0" style="stop-color:rgb(236,0,156);stop-opacity:1"/><stop offset="1" style="stop-color:rgb(142,0,242);stop-opacity:1"/></linearGradient>
        <linearGradient id="_Linear3" x1="0" y1="0" x2="1" y2="0" gradientUnits="userSpaceOnUse" gradientTransform="matrix(-0.838803,7.19011,-16.1797,-1.88753,11.5283,12.0153)"><stop offset="0" style="stop-color:rgb(233,170,241);stop-opacity:1"/><stop offset="0.04" style="stop-color:rgb(248,188,251);stop-opacity:1"/><stop offset="0.08" style="stop-color:rgb(253,195,255);stop-opacity:1"/><stop offset="1" style="stop-color:white;stop-opacity:1"/></linearGradient>
        <linearGradient id="_Linear4" x1="0" y1="0" x2="1" y2="0" gradientUnits="userSpaceOnUse" gradientTransform="matrix(1.54718,1.19867e-06,-1.15838,1.601e-06,9.63818,4.85962)"><stop offset="0" style="stop-color:rgb(253,194,255);stop-opacity:1"/><stop offset="1" style="stop-color:white;stop-opacity:1"/></linearGradient>
    </defs>
</svg>
