<?xml version="1.0" encoding="UTF-8" standalone="no"?>
<!DOCTYPE svg PUBLIC "-//W3C//DTD SVG 1.1//EN" "http://www.w3.org/Graphics/SVG/1.1/DTD/svg11.dtd">
<svg width="100%" height="100%" viewBox="0 0 1536 384" version="1.1" xmlns="http://www.w3.org/2000/svg" xmlns:xlink="http://www.w3.org/1999/xlink" xml:space="preserve" xmlns:serif="http://www.serif.com/" style="fill-rule:evenodd;clip-rule:evenodd;stroke-linejoin:round;stroke-miterlimit:2;">
    <g transform="matrix(0.641921,0,0,0.641921,39.5892,27.6683)">
        <circle cx="256" cy="256" r="256" style="fill:url(#_Linear1);"/>
    </g>
    <g transform="matrix(0.588202,0,0,0.588202,53.4009,41.4202)">
        <circle cx="256" cy="256" r="256" style="fill:url(#_Linear2);"/>
    </g>
    <g transform="matrix(0.627978,0,0,0.627978,43.1719,31.2377)">
        <path d="M338.867,30.915C430.463,64.658 495.86,152.752 495.86,256C495.86,388.341 388.415,495.785 256.074,495.785C152.826,495.785 64.732,430.388 30.989,338.793C70.098,405.281 142.398,449.946 225.047,449.946C349.213,449.946 450.02,349.139 450.02,224.973C450.02,142.323 405.355,70.024 338.867,30.915Z" style="fill:rgb(22,8,130);fill-opacity:0.09;"/>
    </g>
    <g id="flash" transform="matrix(11.4644,0,0,11.4644,91.2236,76.982)">
        <path d="M6.803,18.998C6.609,18.871 9.801,12.328 9.686,12.019L15.251,11.06C13.877,13.072 6.97,19.108 6.803,18.998Z" style="fill:url(#_Linear3);fill-rule:nonzero;"/>
    </g>
    <g id="flash1" serif:id="flash" transform="matrix(11.4644,0,0,11.4644,91.2236,76.982)">
        <path d="M15.42,10.739C14.75,12.431 11.917,12.901 9.734,12.033C9.734,12.033 5.672,10.862 4.258,9.55C3.841,9.162 13.01,0.843 13.199,1.001C13.388,1.159 10.07,8.239 10.16,8.47C10.251,8.7 15.635,10.194 15.42,10.739Z" style="fill:url(#_Linear4);fill-rule:nonzero;"/>
    </g>
    <g transform="matrix(0.682923,0,0,0.682923,29.0901,17.1718)">
        <path d="M99.886,216.324C90.039,213.821 81.85,207.005 77.603,197.775C73.356,188.546 73.506,177.892 78.011,168.786C97.378,129.416 129.416,97.378 168.794,78.029C177.895,73.526 188.543,73.377 197.767,77.621C206.991,81.865 213.804,90.05 216.305,99.89C216.441,100.347 216.558,100.806 216.673,101.26C219.205,111.224 213.909,121.512 204.328,125.241C168.582,139.259 140.024,167.588 125.585,203.135C121.513,213.303 110.54,218.885 99.924,216.186C99.888,216.324 99.887,216.324 99.886,216.324Z" style="fill:white;fill-opacity:0.17;"/>
    </g>
    <g transform="matrix(1,0,0,1,429.286,24.9908)">
        <g transform="matrix(207,0,0,207,0,245.278)">
            <path d="M0.316,0.014C0.259,0.014 0.203,0.007 0.151,-0.008C0.098,-0.022 0.054,-0.04 0.021,-0.063L0.086,-0.209C0.117,-0.189 0.154,-0.172 0.195,-0.16C0.235,-0.147 0.276,-0.14 0.317,-0.14C0.344,-0.14 0.366,-0.142 0.383,-0.148C0.4,-0.153 0.412,-0.159 0.42,-0.168C0.427,-0.176 0.431,-0.186 0.431,-0.197C0.431,-0.213 0.424,-0.226 0.409,-0.235C0.394,-0.244 0.375,-0.252 0.352,-0.258C0.329,-0.264 0.303,-0.27 0.275,-0.276C0.246,-0.282 0.218,-0.29 0.19,-0.299C0.161,-0.308 0.135,-0.321 0.112,-0.336C0.089,-0.35 0.07,-0.37 0.055,-0.395C0.04,-0.419 0.033,-0.45 0.033,-0.487C0.033,-0.529 0.045,-0.567 0.068,-0.601C0.091,-0.635 0.125,-0.662 0.171,-0.683C0.217,-0.704 0.274,-0.714 0.343,-0.714C0.389,-0.714 0.434,-0.709 0.478,-0.699C0.523,-0.688 0.562,-0.673 0.597,-0.653L0.536,-0.506C0.503,-0.524 0.47,-0.538 0.437,-0.547C0.404,-0.556 0.373,-0.56 0.342,-0.56C0.315,-0.56 0.293,-0.557 0.276,-0.552C0.259,-0.546 0.247,-0.538 0.24,-0.529C0.233,-0.52 0.229,-0.509 0.229,-0.497C0.229,-0.482 0.236,-0.469 0.251,-0.461C0.265,-0.452 0.284,-0.444 0.308,-0.439C0.331,-0.433 0.357,-0.427 0.386,-0.421C0.414,-0.415 0.442,-0.407 0.47,-0.399C0.499,-0.39 0.525,-0.378 0.548,-0.363C0.571,-0.347 0.59,-0.328 0.605,-0.304C0.619,-0.279 0.626,-0.249 0.626,-0.212C0.626,-0.171 0.615,-0.134 0.592,-0.1C0.569,-0.065 0.534,-0.038 0.489,-0.017C0.443,0.004 0.385,0.014 0.316,0.014Z" style="fill:rgb(94,110,157);fill-rule:nonzero;"/>
        </g>
        <g transform="matrix(207,0,0,207,133.929,245.278)">
            <path d="M0.289,0.009C0.245,0.009 0.205,0 0.171,-0.017C0.136,-0.034 0.108,-0.062 0.089,-0.099C0.069,-0.136 0.059,-0.182 0.059,-0.239L0.059,-0.542L0.249,-0.542L0.249,-0.27C0.249,-0.228 0.257,-0.198 0.273,-0.18C0.288,-0.162 0.31,-0.153 0.339,-0.153C0.358,-0.153 0.375,-0.157 0.39,-0.166C0.405,-0.175 0.418,-0.189 0.427,-0.207C0.436,-0.227 0.441,-0.251 0.441,-0.281L0.441,-0.542L0.631,-0.542L0.631,-0L0.45,-0L0.45,-0.153L0.485,-0.11C0.466,-0.07 0.439,-0.04 0.404,-0.021C0.369,-0.001 0.33,0.009 0.289,0.009Z" style="fill:rgb(94,110,157);fill-rule:nonzero;"/>
        </g>
        <g transform="matrix(207,0,0,207,277.173,245.278)">
            <path d="M0.061,-0L0.061,-0.542L0.242,-0.542L0.242,-0.384L0.215,-0.429C0.231,-0.47 0.257,-0.5 0.293,-0.521C0.329,-0.541 0.373,-0.551 0.424,-0.551L0.424,-0.38C0.415,-0.381 0.408,-0.382 0.402,-0.383C0.395,-0.383 0.388,-0.383 0.381,-0.383C0.342,-0.383 0.311,-0.373 0.287,-0.352C0.263,-0.331 0.251,-0.296 0.251,-0.249L0.251,-0L0.061,-0Z" style="fill:rgb(94,110,157);fill-rule:nonzero;"/>
        </g>
        <g transform="matrix(207,0,0,207,368.46,245.278)">
            <path d="M0.061,-0L0.061,-0.542L0.242,-0.542L0.242,-0.384L0.215,-0.429C0.231,-0.47 0.257,-0.5 0.293,-0.521C0.329,-0.541 0.373,-0.551 0.424,-0.551L0.424,-0.38C0.415,-0.381 0.408,-0.382 0.402,-0.383C0.395,-0.383 0.388,-0.383 0.381,-0.383C0.342,-0.383 0.311,-0.373 0.287,-0.352C0.263,-0.331 0.251,-0.296 0.251,-0.249L0.251,-0L0.061,-0Z" style="fill:rgb(94,110,157);fill-rule:nonzero;"/>
        </g>
        <g transform="matrix(207,0,0,207,458.712,245.278)">
            <path d="M0.345,0.009C0.281,0.009 0.225,-0.003 0.178,-0.028C0.13,-0.052 0.093,-0.085 0.067,-0.128C0.04,-0.17 0.027,-0.218 0.027,-0.272C0.027,-0.326 0.04,-0.374 0.066,-0.417C0.091,-0.459 0.127,-0.492 0.172,-0.516C0.217,-0.539 0.268,-0.551 0.325,-0.551C0.378,-0.551 0.427,-0.54 0.471,-0.519C0.515,-0.497 0.55,-0.465 0.576,-0.423C0.602,-0.381 0.615,-0.33 0.615,-0.27C0.615,-0.263 0.615,-0.256 0.614,-0.247C0.613,-0.238 0.613,-0.23 0.612,-0.223L0.183,-0.223L0.183,-0.323L0.511,-0.323L0.439,-0.295C0.44,-0.32 0.435,-0.341 0.426,-0.359C0.416,-0.377 0.403,-0.391 0.386,-0.401C0.369,-0.411 0.349,-0.416 0.326,-0.416C0.303,-0.416 0.283,-0.411 0.267,-0.401C0.25,-0.391 0.236,-0.377 0.227,-0.359C0.218,-0.34 0.213,-0.319 0.213,-0.294L0.213,-0.265C0.213,-0.238 0.219,-0.215 0.23,-0.196C0.241,-0.177 0.256,-0.162 0.277,-0.152C0.298,-0.141 0.322,-0.136 0.351,-0.136C0.378,-0.136 0.401,-0.14 0.42,-0.148C0.439,-0.155 0.457,-0.167 0.476,-0.183L0.576,-0.079C0.55,-0.05 0.518,-0.029 0.48,-0.014C0.442,0.001 0.397,0.009 0.345,0.009Z" style="fill:rgb(94,110,157);fill-rule:nonzero;"/>
        </g>
        <g transform="matrix(207,0,0,207,588.501,245.278)">
            <path d="M0.392,-0L0.392,-0.101L0.379,-0.126L0.379,-0.312C0.379,-0.342 0.37,-0.365 0.352,-0.382C0.333,-0.398 0.304,-0.406 0.264,-0.406C0.238,-0.406 0.212,-0.402 0.185,-0.394C0.158,-0.385 0.136,-0.374 0.117,-0.359L0.053,-0.488C0.084,-0.508 0.121,-0.524 0.164,-0.535C0.206,-0.546 0.249,-0.551 0.292,-0.551C0.38,-0.551 0.448,-0.531 0.497,-0.491C0.545,-0.45 0.569,-0.387 0.569,-0.301L0.569,-0L0.392,-0ZM0.232,0.009C0.189,0.009 0.152,0.002 0.122,-0.013C0.092,-0.028 0.069,-0.048 0.054,-0.073C0.038,-0.098 0.03,-0.127 0.03,-0.158C0.03,-0.191 0.039,-0.22 0.056,-0.245C0.073,-0.269 0.099,-0.288 0.134,-0.301C0.169,-0.314 0.215,-0.32 0.271,-0.32L0.399,-0.32L0.399,-0.221L0.297,-0.221C0.266,-0.221 0.245,-0.216 0.233,-0.206C0.22,-0.196 0.214,-0.183 0.214,-0.166C0.214,-0.149 0.22,-0.136 0.233,-0.126C0.246,-0.116 0.263,-0.111 0.285,-0.111C0.306,-0.111 0.325,-0.116 0.342,-0.127C0.359,-0.137 0.371,-0.153 0.379,-0.174L0.405,-0.104C0.395,-0.067 0.376,-0.039 0.346,-0.02C0.318,-0.001 0.279,0.009 0.232,0.009Z" style="fill:rgb(94,110,157);fill-rule:nonzero;"/>
        </g>
        <g transform="matrix(207,0,0,207,718.497,245.278)">
            <rect x="0.061" y="-0.742" width="0.19" height="0.742" style="fill:rgb(94,110,157);fill-rule:nonzero;"/>
        </g>
        <g transform="matrix(207,0,0,207,783.288,245.278)">
            <path d="M0.061,-0L0.061,-0.542L0.251,-0.542L0.251,-0L0.061,-0ZM0.156,-0.602C0.121,-0.602 0.093,-0.612 0.072,-0.631C0.051,-0.65 0.04,-0.674 0.04,-0.703C0.04,-0.732 0.051,-0.756 0.072,-0.775C0.093,-0.794 0.121,-0.804 0.156,-0.804C0.191,-0.804 0.219,-0.795 0.24,-0.777C0.261,-0.758 0.272,-0.735 0.272,-0.706C0.272,-0.676 0.262,-0.651 0.241,-0.631C0.22,-0.612 0.191,-0.602 0.156,-0.602Z" style="fill:rgb(94,110,157);fill-rule:nonzero;"/>
        </g>
        <g transform="matrix(207,0,0,207,848.079,245.278)">
            <path d="M0.258,0.009C0.212,0.009 0.167,0.004 0.124,-0.007C0.08,-0.018 0.045,-0.031 0.018,-0.047L0.075,-0.177C0.1,-0.162 0.13,-0.15 0.164,-0.141C0.198,-0.132 0.231,-0.127 0.264,-0.127C0.296,-0.127 0.318,-0.13 0.331,-0.137C0.343,-0.144 0.349,-0.153 0.349,-0.164C0.349,-0.175 0.343,-0.183 0.332,-0.188C0.32,-0.193 0.305,-0.196 0.285,-0.199C0.267,-0.202 0.246,-0.205 0.223,-0.208C0.2,-0.211 0.178,-0.216 0.155,-0.222C0.132,-0.227 0.111,-0.236 0.092,-0.248C0.073,-0.259 0.057,-0.275 0.046,-0.295C0.035,-0.315 0.029,-0.34 0.029,-0.371C0.029,-0.406 0.039,-0.437 0.059,-0.464C0.08,-0.491 0.11,-0.512 0.149,-0.528C0.188,-0.543 0.236,-0.551 0.293,-0.551C0.331,-0.551 0.37,-0.547 0.408,-0.54C0.448,-0.532 0.48,-0.52 0.507,-0.505L0.45,-0.376C0.423,-0.391 0.397,-0.402 0.37,-0.407C0.343,-0.413 0.318,-0.416 0.294,-0.416C0.262,-0.416 0.239,-0.412 0.227,-0.405C0.214,-0.398 0.207,-0.389 0.207,-0.378C0.207,-0.367 0.213,-0.359 0.224,-0.354C0.235,-0.348 0.251,-0.344 0.27,-0.341C0.289,-0.338 0.309,-0.335 0.332,-0.332C0.355,-0.329 0.378,-0.324 0.401,-0.318C0.424,-0.312 0.445,-0.303 0.464,-0.292C0.483,-0.28 0.498,-0.264 0.509,-0.245C0.52,-0.225 0.526,-0.2 0.526,-0.169C0.526,-0.136 0.516,-0.106 0.496,-0.079C0.475,-0.052 0.445,-0.031 0.406,-0.015C0.366,0.001 0.317,0.009 0.258,0.009Z" style="fill:rgb(94,110,157);fill-rule:nonzero;"/>
        </g>
        <g transform="matrix(207,0,0,207,961.308,245.278)">
            <path d="M0.303,0.009C0.234,0.009 0.18,-0.008 0.141,-0.043C0.102,-0.077 0.083,-0.129 0.083,-0.198L0.083,-0.663L0.273,-0.663L0.273,-0.2C0.273,-0.181 0.278,-0.166 0.289,-0.155C0.3,-0.143 0.313,-0.138 0.33,-0.138C0.353,-0.138 0.372,-0.144 0.388,-0.155L0.435,-0.022C0.419,-0.011 0.399,-0.004 0.376,0.001C0.353,0.006 0.328,0.009 0.303,0.009ZM0.004,-0.38L0.004,-0.522L0.397,-0.522L0.397,-0.38L0.004,-0.38Z" style="fill:rgb(94,110,157);fill-rule:nonzero;"/>
        </g>
    </g>
    <defs>
        <linearGradient id="_Linear1" x1="0" y1="0" x2="1" y2="0" gradientUnits="userSpaceOnUse" gradientTransform="matrix(407.525,1.17563e-06,-296.108,1.61799e-06,60.8348,95.2579)"><stop offset="0" style="stop-color:rgb(255,246,255);stop-opacity:1"/><stop offset="1" style="stop-color:white;stop-opacity:1"/></linearGradient>
        <linearGradient id="_Linear2" x1="0" y1="0" x2="1" y2="0" gradientUnits="userSpaceOnUse" gradientTransform="matrix(175.419,476.72,-481.741,177.267,183.69,14.1919)"><stop offset="0" style="stop-color:rgb(236,0,156);stop-opacity:1"/><stop offset="1" style="stop-color:rgb(142,0,242);stop-opacity:1"/></linearGradient>
        <linearGradient id="_Linear3" x1="0" y1="0" x2="1" y2="0" gradientUnits="userSpaceOnUse" gradientTransform="matrix(-0.838803,7.19011,-16.1797,-1.88753,11.5283,12.0153)"><stop offset="0" style="stop-color:rgb(233,170,241);stop-opacity:1"/><stop offset="0.04" style="stop-color:rgb(248,188,251);stop-opacity:1"/><stop offset="0.08" style="stop-color:rgb(253,195,255);stop-opacity:1"/><stop offset="1" style="stop-color:white;stop-opacity:1"/></linearGradient>
        <linearGradient id="_Linear4" x1="0" y1="0" x2="1" y2="0" gradientUnits="userSpaceOnUse" gradientTransform="matrix(1.54718,1.19867e-06,-1.15838,1.601e-06,9.63818,4.85962)"><stop offset="0" style="stop-color:rgb(253,194,255);stop-opacity:1"/><stop offset="1" style="stop-color:white;stop-opacity:1"/></linearGradient>
    </defs>
</svg>
